<svg width="12" height="21" viewBox="0 0 12 21" fill="none" xmlns="http://www.w3.org/2000/svg">
<path d="M11.9531 10.4286C11.9531 10.2679 11.8728 10.0871 11.7522 9.96652L2.39062 0.604909C2.27009 0.484375 2.08929 0.404016 1.92857 0.404016C1.76786 0.404016 1.58705 0.484375 1.46652 0.604909L0.462054 1.60938C0.341518 1.72991 0.261161 1.91071 0.261161 2.07143C0.261161 2.23214 0.341518 2.41295 0.462054 2.53348L8.35714 10.4286L0.462054 18.3237C0.341518 18.4442 0.261161 18.625 0.261161 18.7857C0.261161 18.9665 0.341518 19.1272 0.462054 19.2478L1.46652 20.2522C1.58705 20.3728 1.76786 20.4531 1.92857 20.4531C2.08929 20.4531 2.27009 20.3728 2.39062 20.2522L11.7522 10.8906C11.8728 10.7701 11.9531 10.5893 11.9531 10.4286Z" fill="#9B9B9B"/>
</svg>
