<svg width="21" height="19" viewBox="0 0 21 19" fill="none" xmlns="http://www.w3.org/2000/svg">
<path d="M18.1289 11.5L7.82812 11.5L8.03906 12.625L17.4961 12.625C17.7539 12.625 17.9648 12.7305 18.1289 12.9414C18.293 13.1523 18.3516 13.3867 18.3047 13.6445L18.0937 14.5234C18.4453 14.6875 18.7148 14.9336 18.9023 15.2617C19.1133 15.5664 19.2187 15.9063 19.2187 16.2813C19.2187 16.8203 19.0195 17.2773 18.6211 17.6523C18.2461 18.0508 17.7891 18.25 17.25 18.25C16.7109 18.25 16.2539 18.0625 15.8789 17.6875C15.5039 17.3125 15.3047 16.8438 15.2812 16.2813C15.2578 15.7422 15.457 15.2734 15.8789 14.875L8.49609 14.875C8.89453 15.25 9.09375 15.7188 9.09375 16.2813C9.09375 16.8438 8.88281 17.3125 8.46093 17.6875C8.0625 18.0859 7.58203 18.2734 7.01953 18.25C6.52734 18.2266 6.09375 18.0273 5.71875 17.6523C5.36718 17.3008 5.17968 16.8789 5.15625 16.3867C5.13281 16.0117 5.21484 15.6602 5.40234 15.332C5.58984 15.0039 5.83593 14.7461 6.14062 14.5586L3.67968 2.5L1.21875 2.5C0.984372 2.5 0.785153 2.41797 0.621091 2.25391C0.457028 2.08984 0.374997 1.89062 0.374997 1.65625L0.374997 1.09375C0.374997 0.859375 0.457028 0.660156 0.621091 0.496094C0.785153 0.332031 0.984372 0.25 1.21875 0.25L4.83984 0.25C5.02734 0.25 5.1914 0.320313 5.33203 0.460938C5.49609 0.578125 5.60156 0.730469 5.64843 0.917969L5.96484 2.5L19.7812 2.5C20.0625 2.5 20.2852 2.60547 20.4492 2.81641C20.6133 3.02734 20.6602 3.26172 20.5898 3.51953L18.9375 10.832C18.8906 11.043 18.7852 11.207 18.6211 11.3242C18.4805 11.4414 18.3164 11.5 18.1289 11.5ZM14.7187 6.15625L13.0312 6.15625L13.0312 4.75C13.0312 4.58594 12.9727 4.45703 12.8555 4.36328C12.7617 4.24609 12.6328 4.1875 12.4687 4.1875L11.9062 4.1875C11.7422 4.1875 11.6016 4.24609 11.4844 4.36328C11.3906 4.45703 11.3437 4.58594 11.3437 4.75L11.3437 6.15625L9.65625 6.15625C9.49218 6.15625 9.35156 6.21484 9.23437 6.33203C9.14062 6.42578 9.09375 6.55469 9.09375 6.71875L9.09375 7.28125C9.09375 7.44531 9.14062 7.58594 9.23437 7.70313C9.35156 7.79688 9.49218 7.84375 9.65625 7.84375L11.3437 7.84375L11.3437 9.25C11.3437 9.41406 11.3906 9.55469 11.4844 9.67188C11.6016 9.76563 11.7422 9.8125 11.9062 9.8125L12.4687 9.8125C12.6328 9.8125 12.7617 9.76563 12.8555 9.67188C12.9727 9.55469 13.0312 9.41406 13.0312 9.25L13.0312 7.84375L14.7187 7.84375C14.8828 7.84375 15.0117 7.79688 15.1055 7.70313C15.2227 7.58594 15.2812 7.44531 15.2812 7.28125L15.2812 6.71875C15.2812 6.55469 15.2227 6.42578 15.1055 6.33203C15.0117 6.21484 14.8828 6.15625 14.7187 6.15625Z" fill="#4B4B4B"/>
</svg>
