<svg width="19" height="13" viewBox="0 0 19 13" fill="none" xmlns="http://www.w3.org/2000/svg">
<path d="M1.70711 4.79289C1.31658 4.40237 0.683417 4.40237 0.292893 4.79289C-0.0976311 5.18342 -0.0976311 5.81658 0.292893 6.20711L1.70711 4.79289ZM7 11.5L6.29289 12.2071L7 12.9142L7.70711 12.2071L7 11.5ZM18.2071 1.70711C18.5976 1.31658 18.5976 0.683417 18.2071 0.292893C17.8166 -0.0976311 17.1834 -0.0976311 16.7929 0.292893L18.2071 1.70711ZM0.292893 6.20711L6.29289 12.2071L7.70711 10.7929L1.70711 4.79289L0.292893 6.20711ZM7.70711 12.2071L18.2071 1.70711L16.7929 0.292893L6.29289 10.7929L7.70711 12.2071Z" fill="#222222"/>
</svg>
