<svg width="25" height="25" viewBox="0 0 25 25" fill="none" xmlns="http://www.w3.org/2000/svg">
<path d="M17.0859 12.5L24.1172 5.46875C24.5391 5.04688 24.75 4.53125 24.75 3.92188C24.75 3.3125 24.5391 2.77344 24.1172 2.30469L22.5703 0.757812C22.1016 0.335938 21.5625 0.125 20.9531 0.125C20.3438 0.125 19.8281 0.335938 19.4062 0.757812L12.375 7.78906L5.34375 0.757812C4.92188 0.335938 4.40625 0.125 3.79688 0.125C3.1875 0.125 2.64844 0.335938 2.17969 0.757812L0.632812 2.30469C0.210938 2.77344 0 3.3125 0 3.92188C0 4.53125 0.210938 5.04688 0.632812 5.46875L7.66406 12.5L0.632812 19.5312C0.210938 19.9531 0 20.4688 0 21.0781C0 21.6875 0.210938 22.2266 0.632812 22.6953L2.17969 24.2422C2.64844 24.6641 3.1875 24.875 3.79688 24.875C4.40625 24.875 4.92188 24.6641 5.34375 24.2422L12.375 17.2109L19.4062 24.2422C19.8281 24.6641 20.3438 24.875 20.9531 24.875C21.5625 24.875 22.1016 24.6641 22.5703 24.2422L24.1172 22.6953C24.5391 22.2266 24.75 21.6875 24.75 21.0781C24.75 20.4688 24.5391 19.9531 24.1172 19.5312L17.0859 12.5Z" fill="#4B4B4B"/>
</svg>
