<svg width="19" height="25" viewBox="0 0 19 25" fill="none" xmlns="http://www.w3.org/2000/svg">
<path d="M18.7634 21.1473C18.8705 21.0268 18.9643 20.8125 18.5357 20.3705C18.3616 20.2098 18.2143 20.1027 18.0938 20.0759C17.9598 20.0357 17.8527 20.0625 17.7589 20.1562L17.6786 20.2366C16.808 21.1071 15.7902 21.7902 14.6652 22.2723C13.4866 22.7679 12.2411 23.0223 10.9688 23.0223C9.68304 23.0223 8.4375 22.7679 7.27232 22.2723C6.13393 21.7902 5.11607 21.1071 4.24554 20.2366C3.33482 19.3259 2.65179 18.308 2.20982 17.2098C1.78125 16.1518 1.64732 15.3482 1.59375 15.0804C1.59375 15.0536 1.59375 15.0402 1.58036 15.0268C1.52679 14.7188 1.24554 14.692 0.830357 14.7589C0.65625 14.7857 0.133929 14.8661 0.1875 15.2411C0.308036 16.1116 0.575893 16.9554 0.910714 17.7723C1.45982 19.0714 2.25 20.2366 3.25446 21.2277C4.24554 22.2321 5.42411 23.0223 6.72321 23.5714C8.0625 24.1339 9.49554 24.4286 10.9688 24.4286C12.442 24.4286 13.8616 24.1339 15.2143 23.5714C16.5134 23.0223 17.6786 22.2321 18.683 21.2277C18.683 21.2277 18.7366 21.1741 18.7634 21.1473ZM12.442 12.9107C12.6295 12.7098 12.4554 12.4821 12.2946 12.3214C12.0402 12.067 11.7991 12 11.6518 12.1473L10.7813 13.0179L9.91071 12.1339C9.85714 12.0937 9.80357 12.067 9.73661 12.067C9.61607 12.067 9.48214 12.1473 9.32143 12.308C9.05357 12.5759 8.98661 12.7634 9.13393 12.9107L10.0179 13.7946L9.13393 14.6652C9.06696 14.7455 9.02679 14.8125 9.02679 14.8929C9.02679 15.0536 9.17411 15.2009 9.26786 15.2812L9.29464 15.308C9.44196 15.4554 9.58929 15.5223 9.70982 15.5223C9.81696 15.5223 9.88393 15.4821 9.91071 15.4554C9.97768 15.3884 10.7277 14.6384 10.7946 14.5714L11.625 15.3884C11.7054 15.4821 11.7857 15.5223 11.8795 15.5223C12.0134 15.5223 12.1607 15.442 12.308 15.2946C12.6696 14.933 12.4955 14.7321 12.4018 14.6384L11.558 13.7946L12.442 12.9107ZM18.75 13.6741C18.75 12.6027 18.5357 11.5848 18.1339 10.6071C17.7321 9.66964 17.1696 8.83928 16.4464 8.11607C15.7232 7.39286 14.8795 6.83036 13.942 6.42857C12.9777 6.01339 11.9464 5.8125 10.8884 5.8125C9.81696 5.8125 8.74554 6.02678 7.79464 6.42857C7.03125 6.75 5.73214 7.58036 4.98214 8.37053H4.96875V1.90178H15.8304C16.2321 1.90178 16.2321 1.35268 16.2321 1.16518C16.2321 0.991071 16.2321 0.42857 15.8304 0.42857H4.08482C3.76339 0.42857 3.57589 0.696427 3.57589 0.937499V10.0446C3.57589 10.3393 3.9375 10.5402 4.27232 10.6205C4.94196 10.7679 5.08929 10.5536 5.25 10.3259L5.27679 10.2991C5.53125 9.9375 6.29464 9.14732 6.30804 9.13393C7.51339 7.92857 9.13393 7.25893 10.8616 7.25893C12.5893 7.25893 14.1964 7.92857 15.4018 9.13393C16.6205 10.3527 17.2902 11.9598 17.2902 13.6741C17.2902 15.375 16.6205 16.9955 15.4152 18.2009C14.2232 19.3929 12.5625 20.0759 10.8482 20.0759C9.68304 20.0759 8.57143 19.7679 7.60714 19.1786V13.6473C7.60714 12.9107 7.92857 12.1071 8.46429 11.5045C9.08036 10.808 9.92411 10.433 10.8482 10.433C11.7455 10.433 12.5759 10.7679 13.192 11.3839C13.808 11.9866 14.1562 12.8036 14.1562 13.6741C14.1562 15.5223 12.6964 16.9687 10.8348 16.9687C10.4866 16.9687 9.83036 16.808 9.80357 16.808C9.42857 16.7009 9.26786 17.2098 9.21429 17.3839C9.01339 18.0402 9.32143 18.1741 9.38839 18.2009C9.97768 18.375 10.3661 18.4152 10.8884 18.4152C13.5 18.4152 15.6429 16.2857 15.6429 13.6607C15.6429 11.0625 13.5134 8.94643 10.8884 8.94643C9.60268 8.94643 8.39732 9.44196 7.5 10.3259C6.62946 11.1696 6.16071 12.308 6.13393 13.433V13.4598C6.13393 13.5938 6.13393 16.9152 6.13393 18H6.12054C5.63839 17.4509 5.14286 16.6205 4.82143 15.7634C4.70089 15.4286 4.40625 15.4821 4.01786 15.6027C3.85714 15.6562 3.32143 15.817 3.44196 16.192H3.45536C3.45536 16.2187 3.57589 16.5536 3.65625 16.7277C4.04464 17.6652 4.60714 18.4955 5.33036 19.2188C6.05357 19.942 6.89732 20.5045 7.83482 20.9062C8.79911 21.3214 9.83036 21.5223 10.8884 21.5223C11.9464 21.5223 12.9777 21.3214 13.942 20.9062C14.8795 20.5045 15.7232 19.942 16.4464 19.2188C17.1696 18.4955 17.7321 17.6652 18.1339 16.7277C18.5357 15.7634 18.75 14.7321 18.75 13.6741ZM18.3348 5.89286C17.4241 5.02232 16.4196 4.37946 15.1875 3.85714C13.8482 3.29464 12.4152 3 10.9554 3C9.54911 3 8.04911 3.28125 6.95089 3.76339C6.83036 3.80357 6.76339 3.89732 6.73661 4.03125C6.72321 4.15178 6.76339 4.32589 6.84375 4.54018C6.91071 4.71428 7.09821 5.16964 7.44643 5.03571C8.57143 4.60714 9.81696 4.37946 10.9554 4.37946C12.2411 4.37946 13.4866 4.62053 14.6518 5.12946C15.5893 5.51786 16.4598 6.08036 17.4241 6.91071C17.4911 6.97768 17.558 7.00446 17.6384 7.00446C17.8259 7.00446 18 6.81696 18.1607 6.65625C18.4152 6.36161 18.5893 6.12053 18.3348 5.89286Z" fill="#9B9B9B"/>
</svg>
