<svg width="21" height="21" viewBox="0 0 21 21" fill="none" xmlns="http://www.w3.org/2000/svg">
<path d="M16.7143 0.142856H3.85714C1.72768 0.142856 0 1.87053 0 4V16.8571C0 18.9866 1.72768 20.7143 3.85714 20.7143H10.9821V12.7455H8.30357V9.63839H10.9821V7.34821C10.9821 4.69643 12.6161 3.25 14.9866 3.25C16.1116 3.25 17.0893 3.33036 17.3705 3.37053V6.14286L15.7366 6.15625C14.4375 6.15625 14.1964 6.75893 14.1964 7.65625V9.63839H17.2634L16.8616 12.7455H14.1964V20.7143H16.7143C18.8438 20.7143 20.5714 18.9866 20.5714 16.8571V4C20.5714 1.87053 18.8438 0.142856 16.7143 0.142856Z" fill="#9B9B9B"/>
</svg>
