<svg width="64" height="51" viewBox="0 0 64 51" fill="none" xmlns="http://www.w3.org/2000/svg">
<path d="M48.3061 19H33.4624V24.4688C33.4624 26.4219 32.7788 28.082 31.4116 29.4492C30.0444 30.8164 28.3842 31.5 26.4311 31.5C24.478 31.5 22.8178 30.8164 21.4507 29.4492C20.0835 28.082 19.3999 26.4219 19.3999 24.4688V12.5547L13.0522 16.3633C12.1408 16.9492 11.3921 17.7305 10.8061 18.707C10.2853 19.6185 10.0249 20.6276 10.0249 21.7344V26.3242L2.21237 30.9141C1.49622 31.3047 1.00794 31.9232 0.747526 32.7695C0.552214 33.6159 0.64987 34.3971 1.04049 35.1133L8.85299 48.6875C9.30872 49.4036 9.95977 49.8594 10.8061 50.0547C11.6525 50.3151 12.4337 50.25 13.1499 49.8594L23.2085 44H36.5874C38.2801 44 39.7449 43.3815 40.9819 42.1445C42.2189 40.9076 42.8374 39.4427 42.8374 37.75H44.3999C45.2462 37.75 45.9624 37.457 46.5483 36.8711C47.1993 36.2201 47.5249 35.4714 47.5249 34.625V28.375H48.3061C48.9572 28.375 49.5105 28.1471 49.9663 27.6914C50.422 27.2357 50.6499 26.6823 50.6499 26.0312V21.3438C50.6499 20.6927 50.422 20.1393 49.9663 19.6836C49.5105 19.2279 48.9572 19 48.3061 19ZM62.7592 15.3867L54.9467 1.8125C54.491 1.09635 53.84 0.640625 52.9936 0.445312C52.1473 0.184896 51.366 0.25 50.6499 0.640625L40.5913 6.5H30.5327C29.3608 6.5 28.254 6.82552 27.2124 7.47656L23.9897 9.52734C23.0132 10.1133 22.5249 10.9922 22.5249 12.1641V24.4688C22.5249 25.5755 22.8829 26.5195 23.5991 27.3008C24.3803 28.0169 25.3243 28.375 26.4311 28.375C27.5379 28.375 28.4493 28.0169 29.1655 27.3008C29.9467 26.5195 30.3374 25.5755 30.3374 24.4688V15.875H48.3061C49.8035 15.875 51.073 16.4284 52.1147 17.5352C53.2215 18.5768 53.7749 19.8464 53.7749 21.3438V24.0781L61.5874 19.5859C62.3035 19.1953 62.7592 18.5768 62.9546 17.7305C63.215 16.8841 63.1499 16.1029 62.7592 15.3867Z" fill="#8EB63E"/>
</svg>
