<svg width="20" height="17" viewBox="0 0 20 17" fill="none" xmlns="http://www.w3.org/2000/svg">
<path d="M17.385 1.34668C16.7522 0.807617 16.0374 0.467774 15.2405 0.327149C14.4436 0.186524 13.6585 0.245117 12.885 0.50293C12.1116 0.760742 11.4319 1.19434 10.846 1.80371L10.1429 2.50684L9.43973 1.80371C8.85379 1.19434 8.1741 0.760742 7.40067 0.50293C6.62723 0.245117 5.84207 0.186523 5.0452 0.327148C4.24832 0.467773 3.53348 0.807617 2.90067 1.34668C2.1741 1.95605 1.6702 2.70605 1.38895 3.59668C1.1077 4.4873 1.06082 5.38965 1.24832 6.30371C1.45926 7.19434 1.89285 7.97949 2.5491 8.65918L9.33426 15.6553C9.56864 15.8896 9.83817 16.0068 10.1429 16.0068C10.4475 16.0068 10.7171 15.8896 10.9514 15.6553L17.7366 8.62402C18.3929 7.96777 18.8147 7.19434 19.0022 6.30371C19.2132 5.38965 19.178 4.4873 18.8968 3.59668C18.6155 2.70605 18.1116 1.95605 17.385 1.34668Z" fill="#4B4B4B"/>
</svg>
