<svg width="22" height="21" viewBox="0 0 22 21" fill="none" xmlns="http://www.w3.org/2000/svg">
<path d="M14.7143 10.4286C14.7143 12.317 13.1741 13.8571 11.2857 13.8571C9.39732 13.8571 7.85714 12.317 7.85714 10.4286C7.85714 8.54018 9.39732 7 11.2857 7C13.1741 7 14.7143 8.54018 14.7143 10.4286ZM16.5625 10.4286C16.5625 7.50893 14.2054 5.15178 11.2857 5.15178C8.36607 5.15178 6.00893 7.50893 6.00893 10.4286C6.00893 13.3482 8.36607 15.7054 11.2857 15.7054C14.2054 15.7054 16.5625 13.3482 16.5625 10.4286ZM18.0089 4.9375C18.0089 4.25446 17.4598 3.70536 16.7768 3.70536C16.0938 3.70536 15.5446 4.25446 15.5446 4.9375C15.5446 5.62053 16.0938 6.16964 16.7768 6.16964C17.4598 6.16964 18.0089 5.62053 18.0089 4.9375ZM11.2857 1.99107C12.7857 1.99107 16 1.87053 17.3527 2.40625C17.8214 2.59375 18.1696 2.82143 18.5313 3.18303C18.8929 3.54464 19.1205 3.89286 19.308 4.36161C19.8438 5.71428 19.7232 8.92857 19.7232 10.4286C19.7232 11.9286 19.8438 15.1429 19.308 16.4955C19.1205 16.9643 18.8929 17.3125 18.5313 17.6741C18.1696 18.0357 17.8214 18.2634 17.3527 18.4509C16 18.9866 12.7857 18.8661 11.2857 18.8661C9.78571 18.8661 6.57143 18.9866 5.21875 18.4509C4.75 18.2634 4.40179 18.0357 4.04018 17.6741C3.67857 17.3125 3.45089 16.9643 3.26339 16.4955C2.72768 15.1429 2.84821 11.9286 2.84821 10.4286C2.84821 8.92857 2.72768 5.71428 3.26339 4.36161C3.45089 3.89286 3.67857 3.54464 4.04018 3.18303C4.40179 2.82143 4.75 2.59375 5.21875 2.40625C6.57143 1.87053 9.78571 1.99107 11.2857 1.99107ZM21.5714 10.4286C21.5714 9.00893 21.5848 7.60268 21.5045 6.18303C21.4241 4.53571 21.0491 3.07589 19.8438 1.87053C18.6384 0.665177 17.1786 0.290177 15.5312 0.209821C14.1116 0.129464 12.7054 0.142856 11.2857 0.142856C9.86607 0.142856 8.45982 0.129464 7.04018 0.209821C5.39286 0.290177 3.93304 0.665177 2.72768 1.87053C1.52232 3.07589 1.14732 4.53571 1.06696 6.18303C0.986607 7.60268 1 9.00893 1 10.4286C1 11.8482 0.986607 13.2545 1.06696 14.6741C1.14732 16.3214 1.52232 17.7812 2.72768 18.9866C3.93304 20.192 5.39286 20.567 7.04018 20.6473C8.45982 20.7277 9.86607 20.7143 11.2857 20.7143C12.7054 20.7143 14.1116 20.7277 15.5312 20.6473C17.1786 20.567 18.6384 20.192 19.8438 18.9866C21.0491 17.7812 21.4241 16.3214 21.5045 14.6741C21.5848 13.2545 21.5714 11.8482 21.5714 10.4286Z" fill="#9B9B9B"/>
</svg>
