<svg width="54" height="57" viewBox="0 0 54 57" fill="none" xmlns="http://www.w3.org/2000/svg">
<path d="M42.923 42.0248C45.2307 37.1637 46.6923 31.989 47.3846 26.6575L47.4615 26.1087C43.4615 30.6561 40.6923 36.066 39.1538 41.9464H42.923V42.0248Z" fill="#8EB63E"/>
<path d="M13.4615 42.0248H18.0769C17 36.5364 15.0769 31.2834 12.4615 26.3439L12.2308 25.8735C11.9231 25.3246 12 24.619 12.4615 24.1486C12.9231 23.6781 13.6154 23.5213 14.1538 23.8349L17.4615 25.403C18.6154 25.9519 19.6923 26.5791 20.6154 27.3631C19.2308 21.8748 17.2308 16.5433 14.5385 11.6039L14.3077 11.1334C14 10.5846 14.0769 9.87895 14.5385 9.40853C15 8.9381 15.6923 8.78129 16.2308 9.09491L20.1538 10.9766C22.9231 12.3095 25.3846 14.2696 27.4615 16.6217C28.3846 12.0743 31.3077 8.15406 35.5385 6.03714L38.2308 4.62586C38.7692 4.31224 39.4615 4.46905 39.9231 4.86107C40.3846 5.3315 40.4615 5.95873 40.2308 6.58597C38.7692 9.80055 37.8462 13.2503 37.4615 16.7785C39.6923 13.956 42.3077 11.3686 45.2308 9.17332C45.7692 8.78129 46.5385 8.78129 47 9.25172C47.5385 9.64374 47.6923 10.4278 47.3846 11.055C45.6154 15.0536 43.9231 21.4044 42.6923 27.6768C44.3077 25.403 46.0769 23.2861 48.1538 21.4044L48.6154 20.934C49.0769 20.542 49.6923 20.3851 50.3077 20.6988C50.8462 21.0124 51.1538 21.5612 51.0769 22.1884L50.4615 27.0495C49.8462 32.2242 48.4615 37.2421 46.3077 42.0248H54V9.01651C53.8462 3.99862 49.9231 0 45 0H8.84615C3.92308 0 0 3.99862 0 9.01651V47.9835C0 52.923 3.92308 57 8.84615 57H12.0769V43.5144C12 42.652 12.6923 42.0248 13.4615 42.0248Z" fill="#8EB63E"/>
<path d="M32.9231 23.7565C33.3077 22.9725 33.7692 22.1884 34.1539 21.4044C34.1539 21.326 34.1539 21.2476 34.1539 21.1692V20.7772C34.1539 16.8569 34.7692 12.8583 36 9.17332C32.2308 11.447 30 15.4457 30 19.9147C30 20.0715 30 20.2283 29.9231 20.3067C30.8462 21.9532 31.6154 23.7565 32.0769 25.5598C32.3077 24.9326 32.6154 24.3054 32.9231 23.7565Z" fill="#8EB63E"/>
<path d="M43.8462 45.0041H37.3077H15V48.6891H35.0769C35.8462 48.6891 36.5385 49.3948 36.5385 50.1788C36.5385 50.9629 35.8462 51.6685 35.0769 51.6685H14.9231V56.9216H45C49.8462 56.9216 53.8462 52.923 53.8462 47.9051V44.9257L43.8462 45.0041ZM41.6923 51.2765C41.3846 51.5901 41.0769 51.7469 40.6923 51.7469C40.3077 51.7469 39.9231 51.5901 39.6923 51.2765C39.3846 50.9629 39.2308 50.6492 39.2308 50.2572C39.2308 49.8652 39.3846 49.4732 39.6923 49.238C40 48.9244 40.3077 48.7675 40.6923 48.7675C41.0769 48.7675 41.4616 48.9244 41.6923 49.238C42 49.5516 42.1539 49.8652 42.1539 50.2572C42.0769 50.5708 41.9231 50.9629 41.6923 51.2765Z" fill="#8EB63E"/>
<path d="M36.154 42.0248C36.6155 39.9078 37.3078 37.8693 38.0771 35.9092C38.6155 32.6162 40.2309 22.9725 42.6155 15.2889C35.6155 22.2668 31.5386 31.9106 31.4617 42.0248H36.154Z" fill="#8EB63E"/>
<path d="M25.3078 42.0248C25.0001 36.3012 21.6924 31.1265 16.7693 28.4608C18.7693 32.773 20.1539 37.3205 21.077 42.0248H25.3078Z" fill="#8EB63E"/>
<path d="M25.3078 32.6162C27.077 35.4388 28.077 38.6534 28.2308 42.0248H28.5385C28.5385 38.4966 29.077 34.9684 29.9231 31.5186C29.8462 23.9133 25.5385 16.9354 18.7693 13.7208C21.3847 19.2875 23.2308 25.1678 24.3077 31.2834C24.6924 31.6754 25.0001 32.1458 25.3078 32.6162Z" fill="#8EB63E"/>
<path d="M40.6153 48.6891C40.2307 48.6891 39.8461 48.8459 39.6153 49.1596C39.3077 49.4732 39.1538 49.7868 39.1538 50.1788C39.1538 50.5708 39.3077 50.9629 39.6153 51.1981C39.923 51.5117 40.2307 51.6685 40.6153 51.6685C41 51.6685 41.3846 51.5117 41.6153 51.1981C41.923 50.8845 42.0769 50.5708 42.0769 50.1788C42.0769 49.7868 41.923 49.3948 41.6153 49.1596C41.3846 48.8459 41 48.6891 40.6153 48.6891Z" fill="white"/>
</svg>
