<svg width="56" height="57" viewBox="0 0 56 57" fill="none" xmlns="http://www.w3.org/2000/svg">
<path d="M44.6296 42C46.8519 37.1133 48.2593 31.9113 48.9259 26.5517L49 26C45.1481 30.5714 42.4815 36.0099 41 41.9212H44.6296V42Z" fill="white"/>
<path d="M13.9601 42.0248H18.7464C17.6296 36.5364 15.6353 31.2834 12.9231 26.3439L12.6838 25.8735C12.3647 25.3246 12.4444 24.619 12.9231 24.1486C13.4017 23.6781 14.1197 23.5213 14.6781 23.8349L18.1083 25.403C19.3048 25.9519 20.4217 26.5791 21.3789 27.3631C19.943 21.8748 17.8689 16.5433 15.0769 11.6039L14.8376 11.1334C14.5185 10.5846 14.5983 9.87895 15.0769 9.40853C15.5556 8.9381 16.2735 8.78129 16.8319 9.09491L20.9003 10.9766C23.7721 12.3095 26.3248 14.2696 28.4786 16.6217C29.4359 12.0743 32.4672 8.15406 36.8547 6.03714L39.6467 4.62586C40.2051 4.31224 40.9231 4.46905 41.4017 4.86107C41.8803 5.3315 41.9601 5.95873 41.7208 6.58597C40.2051 9.80055 39.2479 13.2503 38.849 16.7785C41.1624 13.956 43.8746 11.3686 46.906 9.17332C47.4644 8.78129 48.2621 8.78129 48.7407 9.25172C49.2991 9.64374 49.4587 10.4278 49.1396 11.055C47.3048 15.0536 45.5499 21.4044 44.2735 27.6768C45.9487 25.403 47.7835 23.2861 49.9373 21.4044L50.416 20.934C50.8946 20.542 51.5328 20.3851 52.1709 20.6988C52.7294 21.0124 53.0484 21.5612 52.9687 22.1884L52.3305 27.0495C51.6923 32.2242 50.2564 37.2421 48.0228 42.0248H56V9.01651C55.8405 3.99862 51.7721 0 46.6667 0H9.17379C4.06838 0 0 3.99862 0 9.01651V47.9835C0 52.923 4.06838 57 9.17379 57H12.5242V43.5144C12.4444 42.652 13.1624 42.0248 13.9601 42.0248Z" fill="white"/>
<path d="M33.962 24.1292C34.3418 23.3158 34.7975 22.5024 35.1772 21.689C35.1772 21.6077 35.1772 21.5263 35.1772 21.445V21.0383C35.1772 16.9713 35.7848 12.823 37 9C33.2785 11.3589 31.0759 15.5072 31.0759 20.1435C31.0759 20.3062 31.0759 20.4689 31 20.5502C31.9114 22.2584 32.6709 24.1292 33.1266 26C33.3544 25.3493 33.6582 24.6986 33.962 24.1292Z" fill="white"/>
<path d="M45.7233 45.0784H39.004H16.0791V48.7647H36.7115C37.502 48.7647 38.2134 49.4706 38.2134 50.2549C38.2134 51.0392 37.502 51.7451 36.7115 51.7451H16V57H46.9091C51.8893 57 56 53 56 47.9804V45L45.7233 45.0784ZM43.5099 51.3529C43.1937 51.6667 42.8775 51.8235 42.4822 51.8235C42.087 51.8235 41.6917 51.6667 41.4545 51.3529C41.1383 51.0392 40.9802 50.7255 40.9802 50.3333C40.9802 49.9412 41.1383 49.549 41.4545 49.3137C41.7708 49 42.087 48.8431 42.4822 48.8431C42.8775 48.8431 43.2727 49 43.5099 49.3137C43.8261 49.6275 43.9842 49.9412 43.9842 50.3333C43.9051 50.6471 43.747 51.0392 43.5099 51.3529Z" fill="white"/>
<path d="M37.6276 42C38.0828 39.8622 38.7655 37.8035 39.5241 35.824C40.0552 32.4985 41.6483 22.7595 44 15C37.0966 22.0469 33.0759 31.7859 33 42H37.6276Z" fill="white"/>
<path d="M26 42C25.6757 36.0925 22.1892 30.7514 17 28C19.1081 32.4509 20.5676 37.1445 21.5405 42H26Z" fill="white"/>
<path d="M26.4483 32.6925C28.1931 35.4848 29.1793 38.6648 29.331 42H29.6345C29.6345 38.5097 30.1655 35.0194 31 31.6066C30.9241 24.0831 26.6759 17.1801 20 14C22.5793 19.5069 24.4 25.3241 25.4621 31.374C25.8414 31.7618 26.1448 32.2271 26.4483 32.6925Z" fill="white"/>
</svg>
