<svg width="32" height="29" viewBox="0 0 32 29" fill="none" xmlns="http://www.w3.org/2000/svg">
<path d="M1.125 5.78125H30.375C30.7031 5.78125 30.9609 5.6875 31.1484 5.5C31.3828 5.26563 31.5 4.98438 31.5 4.65625V1.84375C31.5 1.51562 31.3828 1.25781 31.1484 1.07031C30.9609 0.835938 30.7031 0.71875 30.375 0.71875H1.125C0.796875 0.71875 0.515625 0.835938 0.28125 1.07031C0.09375 1.25781 0 1.51562 0 1.84375V4.65625C0 4.98438 0.09375 5.26563 0.28125 5.5C0.515625 5.6875 0.796875 5.78125 1.125 5.78125ZM1.125 17.0312H30.375C30.7031 17.0312 30.9609 16.9375 31.1484 16.75C31.3828 16.5156 31.5 16.2344 31.5 15.9062V13.0938C31.5 12.7656 31.3828 12.5078 31.1484 12.3203C30.9609 12.0859 30.7031 11.9688 30.375 11.9688H1.125C0.796875 11.9688 0.515625 12.0859 0.28125 12.3203C0.09375 12.5078 0 12.7656 0 13.0938V15.9062C0 16.2344 0.09375 16.5156 0.28125 16.75C0.515625 16.9375 0.796875 17.0312 1.125 17.0312ZM1.125 28.2812H30.375C30.7031 28.2812 30.9609 28.1875 31.1484 28C31.3828 27.7656 31.5 27.4844 31.5 27.1562V24.3438C31.5 24.0156 31.3828 23.7578 31.1484 23.5703C30.9609 23.3359 30.7031 23.2188 30.375 23.2188H1.125C0.796875 23.2188 0.515625 23.3359 0.28125 23.5703C0.09375 23.7578 0 24.0156 0 24.3438V27.1562C0 27.4844 0.09375 27.7656 0.28125 28C0.515625 28.1875 0.796875 28.2812 1.125 28.2812Z" fill="#4B4B4B"/>
</svg>
