<svg width="21" height="21" viewBox="0 0 21 21" fill="none" xmlns="http://www.w3.org/2000/svg">
<path d="M16.7143 0.142856H3.85714C1.72768 0.142856 0 1.87053 0 4V16.8571C0 18.9866 1.72768 20.7143 3.85714 20.7143H6.30804C6.22768 19.9777 6.10714 18.5446 6.40179 17.3125C6.40179 17.3125 6.60268 16.4821 7.71429 11.7679C7.39286 11.1116 7.39286 10.1473 7.39286 10.1473C7.39286 8.64732 8.26339 7.52232 9.34821 7.52232C10.2723 7.52232 10.7143 8.21875 10.7143 9.04911C10.7143 9.97321 10.125 11.3661 9.81696 12.6518C9.5625 13.7366 10.3661 14.6205 11.4241 14.6205C13.3527 14.6205 14.6518 12.1429 14.6518 9.20982C14.6518 6.97321 13.1518 5.3125 10.4196 5.3125C7.33929 5.3125 5.41071 7.60268 5.41071 10.1741C5.41071 11.0714 5.67857 11.6875 6.08036 12.183C6.26786 12.3973 6.29464 12.4911 6.22768 12.7455C6.17411 12.933 6.06696 13.3884 6.02679 13.5625C5.95982 13.817 5.74554 13.9107 5.51786 13.817C4.09821 13.2277 3.42857 11.6741 3.42857 9.93304C3.42857 7.04018 5.86607 3.57143 10.7009 3.57143C14.5848 3.57143 17.1429 6.38393 17.1429 9.39732C17.1429 13.3884 14.9196 16.375 11.6518 16.375C10.5536 16.375 9.52232 15.7857 9.16071 15.1027C8.57143 17.4464 8.45089 17.9018 8.45089 17.9018C8.16964 19 7.44643 20.0848 7.00446 20.7143H16.7143C18.8438 20.7143 20.5714 18.9866 20.5714 16.8571V4C20.5714 1.87053 18.8438 0.142856 16.7143 0.142856Z" fill="#9B9B9B"/>
</svg>
