<svg width="41" height="33" viewBox="0 0 41 33" fill="none" xmlns="http://www.w3.org/2000/svg">
<path d="M13.0781 16.7109C13.0781 16.0078 12.5859 15.5859 11.9531 15.5859C11.0391 15.5859 10.4062 16.2891 10.4062 17.1328C10.4062 17.8359 10.8984 18.1875 11.5312 18.1875C12.375 18.1875 13.0781 17.5547 13.0781 16.7109ZM5.625 13.2656H5.27344C5.20312 13.2656 5.0625 13.3359 5.0625 13.4766L4.78125 15.375L5.34375 15.3047C6.11719 15.3047 6.75 15.2344 6.89062 14.3203C7.03125 13.4062 6.39844 13.2656 5.625 13.2656ZM25.5938 13.2656H25.3125C25.1719 13.2656 25.1016 13.3359 25.0312 13.4766L24.75 15.375L25.3125 15.3047C26.2266 15.3047 26.8594 15.0938 26.8594 14.0391C26.8594 13.3359 26.2266 13.2656 25.5938 13.2656ZM40.5 4.125C40.5 2.29688 38.9531 0.75 37.125 0.75H3.375C1.47656 0.75 0 2.29688 0 4.125V28.875C0 30.7734 1.47656 32.25 3.375 32.25H37.125C38.9531 32.25 40.5 30.7734 40.5 28.875V4.125ZM9 13.6875C9 15.7266 7.73438 16.9219 5.76562 16.9219C5.41406 16.9219 4.57031 16.7109 4.5 17.2031L4.14844 19.1016C4.14844 19.3125 3.9375 19.5234 3.79688 19.5234H2.46094C2.32031 19.5234 2.17969 19.3828 2.25 19.2422L3.375 12.0703C3.375 11.8594 3.58594 11.7188 3.72656 11.7188H6.53906C7.875 11.7188 9 12.2109 9 13.6875ZM14.9062 14.3203C15.0469 14.3203 15.1875 14.4609 15.1172 14.6016L14.4141 19.1016C14.4141 19.3125 14.2031 19.5234 14.0625 19.5234H12.7969C12.6562 19.5234 12.5859 19.3828 12.5859 19.2422C12.5859 19.1016 12.6562 18.8906 12.6562 18.75C12.2344 19.2422 11.4609 19.5938 10.8281 19.5938C9.42188 19.5938 8.57812 18.75 8.57812 17.3438C8.57812 15.6562 9.91406 14.1797 11.6016 14.1797C12.3047 14.1797 12.8672 14.25 13.2891 14.8828C13.2891 14.6719 13.2891 14.3203 13.5703 14.3203H14.9062ZM17.7891 21.2109C17.7188 21.2812 17.5781 21.3516 17.4375 21.3516H16.1016C15.9609 21.3516 15.8906 21.2812 15.8906 21.1406C15.8906 20.9297 17.0859 19.1719 17.2969 18.8906C17.1562 18.5391 15.8203 14.6016 15.8203 14.5312C15.8203 14.4609 15.8906 14.3203 16.0312 14.3203H17.3672C17.5078 14.3203 17.7188 14.4609 17.7188 14.6016L18.4922 17.2031L20.3906 14.4609C20.4609 14.3906 20.6016 14.3203 20.6719 14.3203H22.0781C22.1484 14.3203 22.2891 14.4609 22.2891 14.5312C22.2891 14.6016 22.2891 14.6016 22.2188 14.6719L17.7891 21.2109ZM28.9688 13.6875C28.9688 15.7266 27.7031 16.9219 25.7344 16.9219C25.3828 16.9219 24.5391 16.7109 24.4688 17.2031L24.1172 19.2422C24.1172 19.3828 23.9766 19.5234 23.8359 19.5234H22.4297C22.2891 19.5234 22.2188 19.3828 22.2188 19.2422L23.3438 12.0703C23.3438 11.8594 23.5547 11.7188 23.6953 11.7188H26.5078C27.8438 11.7188 28.9688 12.2109 28.9688 13.6875ZM34.875 14.3203C35.0156 14.3203 35.1562 14.4609 35.0859 14.6016L34.3828 19.1016C34.3828 19.3125 34.1719 19.5234 34.0312 19.5234H32.7656C32.625 19.5234 32.5547 19.3828 32.5547 19.2422C32.5547 19.1016 32.625 18.8906 32.625 18.75C32.2031 19.2422 31.4297 19.5938 30.7969 19.5938C29.3906 19.5938 28.5469 18.75 28.5469 17.3438C28.5469 15.6562 29.8828 14.1797 31.5703 14.1797C32.2734 14.1797 32.8359 14.25 33.2578 14.8828C33.2578 14.6719 33.2578 14.3203 33.5391 14.3203H34.875ZM38.25 11.9297V12L37.0547 19.1016C37.0547 19.3125 36.9141 19.5234 36.7031 19.5234H35.5781C35.4375 19.5234 35.2969 19.3828 35.2969 19.2422L36.4922 11.9297C36.4922 11.7891 36.5625 11.7188 36.7031 11.7188H37.9688C38.1094 11.7188 38.25 11.7891 38.25 11.9297ZM31.9219 15.5859C31.0078 15.5859 30.375 16.2891 30.375 17.1328C30.375 17.8359 30.8672 18.1875 31.5 18.1875C32.3438 18.1875 33.0469 17.5547 33.0469 16.7109C33.0469 16.0078 32.5547 15.5859 31.9219 15.5859Z" fill="#4B4B4B"/>
</svg>
