<svg width="40" height="40" viewBox="0 0 40 40" fill="none" xmlns="http://www.w3.org/2000/svg">
<path d="M39.4659 31.7411C39.4659 31.5458 39.4659 31.3504 39.3822 31.1551C39.1868 30.5692 37.8197 29.9554 37.2616 29.6763C35.6712 28.7835 34.0529 27.9185 32.4904 26.9978C31.765 26.5513 30.8721 25.7143 30.0072 25.7143C28.3051 25.7143 25.8219 30.7645 24.3152 30.7645C23.5618 30.7645 22.5853 30.067 21.9156 29.6763C16.8375 26.8583 13.3219 23.3426 10.5038 18.2645C10.1132 17.5949 9.41563 16.6183 9.41563 15.865C9.41563 14.3583 14.4659 11.875 14.4659 10.173C14.4659 9.30803 13.6288 8.41518 13.1824 7.68973C12.2616 6.12723 11.3967 4.50893 10.5038 2.91853C10.2248 2.36049 9.61095 0.993302 9.02501 0.797989C8.8297 0.714284 8.63438 0.714284 8.43907 0.714284C7.43461 0.714284 5.48148 1.16071 4.56072 1.57924C3.19354 2.16518 2.30068 3.72768 1.60313 4.98326C0.710277 6.62946 0.180143 8.30357 0.180143 10.173C0.180143 12.7679 1.24041 15.1116 2.10537 17.4833C2.71921 19.1853 3.47255 20.8315 4.42121 22.3661C7.3509 27.1094 13.0708 32.8292 17.8141 35.7589C19.3487 36.7076 20.9949 37.4609 22.6969 38.0748C25.0685 38.9397 27.4123 40 30.0072 40C31.8766 40 33.5507 39.4699 35.1969 38.577C36.4525 37.8795 38.015 36.9866 38.6009 35.6194C39.0194 34.6987 39.4659 32.7455 39.4659 31.7411Z" fill="#8EB63E"/>
</svg>
