<svg width="377" height="463" viewBox="0 0 377 463" fill="none" xmlns="http://www.w3.org/2000/svg">
<path d="M258.019 390.959C254.56 390.959 251.102 392.344 249.026 395.115C246.259 397.886 244.876 400.657 244.876 404.12C244.876 407.584 246.259 411.047 249.026 413.125C251.793 415.896 254.56 417.281 258.019 417.281C261.478 417.281 264.937 415.896 267.012 413.125C269.779 410.354 271.162 407.584 271.162 404.12C271.162 400.657 269.779 397.193 267.012 395.115C264.937 392.344 261.478 390.959 258.019 390.959Z" fill="white" fill-opacity="0.1"/>
<path d="M26.978 417.282H207.523C214.44 417.282 220.666 411.048 220.666 404.121C220.666 397.194 214.44 390.959 207.523 390.959H26.978V358.402H227.583H287.073H377V332.08H307.826C326.503 289.825 338.954 245.493 345.18 199.774L350.714 156.827C351.405 151.285 348.639 145.744 343.796 143.666C338.954 140.895 332.728 142.28 328.578 145.744L324.428 149.9C306.442 167.218 289.84 185.228 275.314 205.316C287.073 149.9 301.6 93.7915 317.51 58.4638C320.277 52.9222 318.202 46.6879 314.051 42.5317C309.209 39.0682 302.983 38.3755 298.141 41.839C271.855 60.5419 248.336 83.401 228.275 109.031C231.734 77.8594 240.727 47.3806 253.178 18.9799C255.253 14.1311 254.561 7.89677 250.411 3.74057C246.261 -0.415621 240.727 -1.10832 235.193 1.66248L210.982 14.1311C172.936 32.8339 147.341 67.4689 138.349 107.645C120.363 86.8645 98.2275 69.547 72.633 57.7711L38.0459 41.1463C33.2037 38.3755 26.978 39.7609 22.8275 43.9171C18.6771 48.0733 17.9853 54.3076 20.7523 59.1565L22.8275 63.3127C47.0385 107.645 65.0239 154.056 77.4752 202.545C68.4826 195.618 58.7982 190.077 49.1138 185.228L19.3688 171.374C14.5266 168.603 8.30092 169.988 4.15046 174.145C2.47387e-06 178.301 -0.691742 184.535 2.07523 189.384L4.15046 192.847C28.3615 236.487 44.9633 282.898 54.6477 331.387H13.1431C6.22569 331.387 0 337.622 0 344.548V463H26.2862V417.282H26.978ZM318.894 191.462V196.311C312.668 243.414 299.525 289.133 278.772 332.08H244.877C258.02 279.435 283.615 231.639 318.894 191.462ZM275.314 95.8695C253.87 163.754 239.343 248.956 234.501 278.049C227.583 295.367 221.358 313.377 217.207 332.08H175.703C176.395 242.722 213.057 157.52 275.314 95.8695ZM161.868 136.046C161.868 96.5622 182.62 60.5419 215.824 41.1463C204.756 74.3959 199.222 109.031 199.222 143.666V147.129C199.222 147.822 199.222 148.515 199.222 149.207C195.072 156.134 191.613 163.061 188.154 169.988C185.387 175.53 182.62 180.379 180.545 185.92C175.703 169.988 169.477 154.056 161.176 139.51C161.868 138.817 161.868 137.431 161.868 136.046ZM62.2569 82.0156C122.439 111.109 161.868 172.759 162.56 239.258C154.259 269.737 150.108 300.908 150.108 332.08H147.341C145.958 302.987 136.965 273.893 121.055 248.956C118.288 244.8 115.521 240.644 112.754 236.487C102.378 183.15 85.7761 131.197 62.2569 82.0156ZM43.5798 212.243C87.8514 235.795 117.596 281.513 120.363 332.08H81.6257C74.0165 290.518 60.8734 250.341 43.5798 212.243Z" fill="white" fill-opacity="0.1"/>
</svg>
