<svg width="41" height="41" viewBox="0 0 41 41" fill="none" xmlns="http://www.w3.org/2000/svg">
<path d="M38.773 2.60714C36.9872 0.821427 32.523 2.60714 29.8444 5.28571L25.3801 9.75L6.82541 5.31361C6.54639 5.22991 6.21157 5.34152 5.98835 5.53683L2.41692 9.10826C2.22161 9.30357 2.13791 9.61049 2.16581 9.86161C2.22161 10.1406 2.38902 10.3917 2.64014 10.5312L16.8142 18.3158L9.58768 25.5424L4.17474 24.0636C4.11893 24.0357 4.03523 24.0357 3.95152 24.0357C3.72831 24.0357 3.47719 24.1194 3.30978 24.2868L0.631211 26.9933C0.4638 27.1886 0.352193 27.4397 0.380095 27.6908C0.407996 27.942 0.519603 28.1931 0.742818 28.3326L7.77407 33.606L13.0475 40.6373C13.2149 40.8605 13.4381 40.9721 13.7171 41C13.7451 41 13.7451 41 13.773 41C13.9962 41 14.2473 40.9163 14.4147 40.7489L17.0933 38.0703C17.3165 37.8192 17.4002 37.5123 17.3165 37.2054L15.8377 31.7924L23.0642 24.5658L30.8488 38.74C30.9605 38.9911 31.1837 39.1306 31.4348 39.1864C31.5185 39.2143 31.5743 39.2143 31.6301 39.2143C31.8254 39.2143 32.0207 39.1585 32.1602 39.0469L35.7317 36.3683C36.0107 36.1451 36.1502 35.7824 36.0665 35.4475L31.6022 16.0279L36.0944 11.5357C38.773 8.85714 40.5587 4.39286 38.773 2.60714Z" fill="#8EB63E"/>
</svg>
