<svg width="27" height="36" viewBox="0 0 27 36" fill="none" xmlns="http://www.w3.org/2000/svg">
<path d="M17.3274 28.1875C17.3274 27.5737 16.8252 27.0714 16.2113 27.0714H9.5149C8.90106 27.0714 8.39882 27.5737 8.39882 28.1875V34.8839C8.39882 35.4978 8.90106 36 9.5149 36H16.2113C16.8252 36 17.3274 35.4978 17.3274 34.8839V28.1875ZM26.1444 11.4464C26.1444 5.05692 19.4479 0.285713 13.4769 0.285713C7.78498 0.285713 3.54391 2.71317 0.53052 7.70759C0.223601 8.20982 0.335208 8.82366 0.809538 9.18638L5.38543 12.6741C5.60865 12.8136 5.83186 12.8973 6.08298 12.8973C6.3899 12.8973 6.72472 12.7299 6.94793 12.4509C8.59414 10.3862 9.26378 9.71652 9.93342 9.24219C10.5473 8.82366 11.6912 8.43303 12.9468 8.43303C15.2069 8.43303 17.2437 9.82812 17.2437 11.3906C17.2437 13.1763 16.3508 14.0971 14.2024 15.0737C11.747 16.1897 8.39882 19.0915 8.39882 22.4676V23.7232C8.39882 24.3371 8.78945 25.2857 9.40329 25.2857H16.0997C16.7415 25.2857 17.2158 24.5603 17.2158 23.9464C17.2158 23.1373 18.2482 21.2121 19.8944 20.2634C22.545 18.7846 26.1444 16.7478 26.1444 11.4464Z" fill="#8EB63E"/>
</svg>
