<svg width="19" height="19" viewBox="0 0 19 19" fill="none" xmlns="http://www.w3.org/2000/svg">
<path d="M17.8968 15.5879L14.3811 12.0723C14.2171 11.9082 14.0179 11.8262 13.7835 11.8262L13.221 11.8262C14.2522 10.5137 14.7679 9.01367 14.7679 7.32617C14.7679 5.99023 14.4397 4.77148 13.7835 3.66992C13.1272 2.54492 12.2366 1.6543 11.1116 0.998047C10.01 0.341797 8.79129 0.013672 7.45535 0.013672C6.11942 0.0136719 4.88895 0.341797 3.76395 0.998047C2.66239 1.6543 1.78348 2.54492 1.12723 3.66992C0.47098 4.77148 0.142855 5.99023 0.142855 7.32617C0.142855 8.66211 0.47098 9.89258 1.12723 11.0176C1.78348 12.1191 2.66239 12.998 3.76395 13.6543C4.88895 14.3105 6.11942 14.6387 7.45535 14.6387C9.14285 14.6387 10.6429 14.123 11.9554 13.0918L11.9554 13.6543C11.9554 13.8887 12.0374 14.0879 12.2014 14.252L15.7171 17.7676C15.8811 17.9316 16.0804 18.0137 16.3147 18.0137C16.5491 18.0137 16.7483 17.9316 16.9124 17.7676L17.8968 16.7832C18.0608 16.6191 18.1429 16.4199 18.1429 16.1855C18.1429 15.9512 18.0608 15.752 17.8968 15.5879ZM7.45535 11.8262C6.63504 11.8262 5.87332 11.627 5.1702 11.2285C4.49051 10.8301 3.95145 10.291 3.55301 9.61133C3.15457 8.9082 2.95535 8.14648 2.95535 7.32617C2.95535 6.50586 3.15457 5.75586 3.55301 5.07617C3.95145 4.37305 4.49051 3.82227 5.1702 3.42383C5.87332 3.02539 6.63504 2.82617 7.45535 2.82617C8.27567 2.82617 9.02567 3.02539 9.70535 3.42383C10.4085 3.82227 10.9593 4.37305 11.3577 5.07617C11.7561 5.75586 11.9554 6.50586 11.9554 7.32617C11.9554 8.14648 11.7561 8.9082 11.3577 9.61133C10.9593 10.291 10.4085 10.8301 9.70535 11.2285C9.02567 11.627 8.27567 11.8262 7.45535 11.8262Z" fill="#4B4B4B"/>
</svg>
