<svg width="175" height="179" viewBox="0 0 175 179" fill="none" xmlns="http://www.w3.org/2000/svg">
<path d="M15 174.602L5 158.221L10.8 145.236L23 150.83V135.447H37V173.004L15 174.602Z" fill="#99918D" stroke="#3A2E2A" stroke-width="3" stroke-miterlimit="10" stroke-linecap="round" stroke-linejoin="round"/>
<path d="M65.0001 115.67C65.0001 105.882 45.6001 101.287 45.6001 87.9024C45.6001 56.938 61 45.8915 61 38.5C61 38.5 70 53.6062 70 59C70 73 67 73.8129 67 85C67 96.1871 75.8001 102.685 75.8001 115.67C75.8001 128.656 65.0001 115.67 65.0001 115.67Z" fill="#22A58C" stroke="#3A2E2A" stroke-width="5" stroke-miterlimit="10" stroke-linecap="round" stroke-linejoin="round"/>
<path d="M66.2002 120.265C66.2002 120.265 67.2002 104.483 46.8002 89.5006C37.8002 82.9082 30.6002 71.5213 35.6002 36.7612C35.6002 36.7612 49.0002 45.7509 51.2002 70.922C52.4002 81.7096 63.6002 90.4995 67.6002 93.6958C73.6002 98.2905 79.2002 107.08 78.0002 121.664L66.2002 120.265Z" fill="#71C48F" stroke="#3A2E2A" stroke-width="5" stroke-miterlimit="10" stroke-linecap="round" stroke-linejoin="round"/>
<path d="M75.6002 114.871C75.6002 114.871 69.4002 53.5419 70.2002 36.5614C71.0002 19.5809 84.2002 14.1871 83.2002 3C83.2002 3 94.6002 18.5821 94.2002 34.364C94.2002 34.364 91.0002 103.884 89.2002 115.87C87.8002 127.856 75.6002 114.871 75.6002 114.871Z" fill="#139B81" stroke="#3A2E2A" stroke-width="5" stroke-miterlimit="10" stroke-linecap="round" stroke-linejoin="round"/>
<path d="M74.7998 118.067C74.7998 118.067 81.3998 107.48 83.5998 103.484C85.9998 99.6885 84.5998 98.0903 90.5998 87.902C94.3998 81.7091 108.4 74.7172 110.4 64.3291C106.6 32.5656 116.6 33.964 118 25.7734C118 25.7734 127.4 42.1546 127.2 57.3372C127.2 57.3372 126.2 73.9181 115.6 80.7103C110 84.3062 107 87.902 99.7998 98.0903C96.1998 103.085 85.5998 108.478 84.5998 118.067C83.5998 127.656 74.7998 118.067 74.7998 118.067Z" fill="#3BB49E" stroke="#3A2E2A" stroke-width="5" stroke-miterlimit="10" stroke-linecap="round" stroke-linejoin="round"/>
<path d="M80.2002 121.064C80.2002 121.064 84.4002 106.88 95.2002 101.686C95.2002 101.686 101.8 98.6896 112.8 89.8997C118.4 85.305 121.6 77.7137 122.6 68.3245C122.6 68.3245 127.6 47.9479 137.4 42.7539C137.4 42.7539 136.8 59.1351 137.4 70.1224C137.8 76.5151 133 93.4956 124.8 97.2912C110.4 103.884 97.0002 111.475 95.0002 120.265L80.2002 121.064Z" fill="#71C48F" stroke="#3A2E2A" stroke-width="5" stroke-miterlimit="10" stroke-linecap="round" stroke-linejoin="round"/>
<path d="M127.4 176.001H43.6001C39.2001 176.001 35.6001 172.405 35.6001 168.01V123.461C35.6001 119.066 39.2001 115.47 43.6001 115.47H127.4C131.8 115.47 135.4 119.066 135.4 123.461V168.01C135.4 172.405 131.8 176.001 127.4 176.001Z" fill="#E5E5E5"/>
<path d="M126.4 176.601H42.7998C38.3998 176.601 34.7998 173.005 34.7998 168.61V124.061C34.7998 119.666 38.3998 116.07 42.7998 116.07H126.2C130.6 116.07 134.2 119.666 134.2 124.061V168.61C134.4 173.005 130.8 176.601 126.4 176.601Z" stroke="#3A2E2A" stroke-width="4" stroke-miterlimit="10"/>
<path d="M33.2002 132.651H116.2" stroke="#3A2E2A" stroke-width="3" stroke-miterlimit="10" stroke-linecap="round"/>
<path d="M2 177H150" stroke="#3A2E2A" stroke-width="4" stroke-miterlimit="10" stroke-linecap="round"/>
<path d="M163 176.8H173" stroke="#3A2E2A" stroke-width="4" stroke-miterlimit="10" stroke-linecap="round"/>
</svg>
