<svg width="144" height="181" viewBox="0 0 144 181" fill="none" xmlns="http://www.w3.org/2000/svg">
<path d="M37.1134 31.6884C37.1134 31.6884 24.8326 29.5073 26.1971 21.601C26.4701 19.9652 28.1075 16.421 31.4733 16.6937C33.5656 16.8754 36.6586 15.2396 37.8412 11.9681C38.6599 9.51437 39.8425 11.241 40.7522 10.8775C41.389 10.6049 43.4813 10.2414 43.4813 10.2414L44.9368 4.97052L47.029 3.69824L77.1398 9.15087L80.8695 9.60525L99.2453 4.33438L101.156 4.51614L108.888 33.9603L110.162 39.7764L110.98 58.8606V66.1308L107.432 76.1273L101.974 82.4887L94.6968 88.9409L84.5993 93.9392L69.1345 94.9388L54.2156 91.3946L45.8465 85.5785L40.3883 79.1262L36.2037 70.9473L33.9295 63.5862L34.0205 51.5905L34.4753 40.6852L37.1134 31.6884Z" fill="#37BCA5"/>
<path d="M69.5894 8.24239L81.1425 10.6052L99.7002 4.78906L102.338 6.15222L109.343 36.1416L111.344 46.1381V63.4956L108.979 72.4925L104.34 81.1258L98.3357 87.4872L91.513 92.6672L83.6896 96.0296H60.4016L50.395 89.85L43.0265 82.6707L38.0232 72.4925C38.0232 72.4925 46.3923 69.9479 54.2157 62.496C58.4003 58.4974 68.2249 46.956 66.5875 41.1399C64.4042 33.3245 55.3073 28.1445 59.7648 22.7827C62.6758 19.4203 72.4095 14.1494 69.5894 8.24239Z" fill="#70C48F"/>
<path d="M22.7404 11.7864C22.7404 11.7864 26.7431 15.5123 29.1082 12.3316C29.1082 12.3316 30.5637 7.69688 26.1972 8.06039C26.1972 8.06039 21.9217 6.33373 22.7404 11.7864Z" fill="#37BCA5"/>
<path d="M3.36388 153.099C3.36388 153.099 19.1925 155.462 21.1938 143.466C22.0125 138.468 18.2828 127.836 30.8365 123.019C37.4773 120.475 44.118 118.657 44.9367 101.027C44.9367 101.027 73.6829 93.6658 104.976 102.208C104.976 102.208 139.544 107.752 140.454 135.833L140.727 177.909H3L3.36388 153.099Z" fill="#6DC38D"/>
<path d="M62.039 178C62.039 178 58.946 153.281 85.9638 155.281C91.9678 155.735 102.338 158.007 108.888 147.374C113.527 139.831 115.893 120.384 133.905 122.383C133.905 122.383 141.455 122.383 140.545 148.283L140.727 176.909L62.039 178Z" fill="#37BCA5"/>
<path d="M7.18457 42.4111H135.269" stroke="black" stroke-width="5" stroke-miterlimit="10" stroke-linecap="round"/>
<path d="M42.2988 12.6946C42.2988 12.6946 44.1182 5.06094 46.2104 3.97042C53.9428 -0.209929 72.3185 10.5136 81.2335 9.78655C86.1458 9.42304 95.8795 1.51674 100.246 3.97042C106.705 7.6055 107.705 29.7795 108.979 37.0497C111.071 48.5002 114.801 61.8591 105.067 79.3075C105.067 79.3075 91.422 104.117 57.3996 92.9391C57.3996 92.9391 37.7503 87.3956 33.5657 65.2216C31.9283 56.5882 32.1102 48.2275 37.9323 30.2339" stroke="black" stroke-width="5" stroke-miterlimit="10" stroke-linecap="round"/>
<path d="M65.4048 79.3075C65.4048 79.3075 87.3283 85.6689 94.06 66.2212" stroke="black" stroke-width="5" stroke-miterlimit="10" stroke-linecap="round"/>
<path d="M3.81888 177.545C3.81888 177.545 3.36404 155.19 3.36404 147.374C3.36404 140.559 0.907875 110.478 33.0199 102.208C33.0199 102.208 69.6805 91.5758 105.522 101.754C117.439 105.116 139.363 108.752 141 136.287L140.545 177.727L3.81888 177.545Z" stroke="black" stroke-width="5" stroke-miterlimit="10" stroke-linecap="round" stroke-linejoin="round"/>
<path d="M33.0198 102.3L33.9295 177.637" stroke="black" stroke-width="5" stroke-miterlimit="10" stroke-linecap="round"/>
<path d="M51.9414 98.937L52.4872 177.182" stroke="black" stroke-width="5" stroke-miterlimit="10" stroke-linecap="round"/>
<path d="M93.3323 100.028V177.546" stroke="black" stroke-width="5" stroke-miterlimit="10" stroke-linecap="round"/>
<path d="M112.8 104.299L113.709 177.546" stroke="black" stroke-width="5" stroke-miterlimit="10" stroke-linecap="round"/>
<path d="M43.3904 131.198C44.9478 131.198 46.2104 129.937 46.2104 128.381C46.2104 126.825 44.9478 125.564 43.3904 125.564C41.8329 125.564 40.5703 126.825 40.5703 128.381C40.5703 129.937 41.8329 131.198 43.3904 131.198Z" fill="black"/>
<path d="M103.976 131.198C105.533 131.198 106.796 129.937 106.796 128.381C106.796 126.825 105.533 125.564 103.976 125.564C102.418 125.564 101.156 126.825 101.156 128.381C101.156 129.937 102.418 131.198 103.976 131.198Z" fill="black"/>
</svg>
