<svg width="7" height="24" viewBox="0 0 7 24" fill="none" xmlns="http://www.w3.org/2000/svg">
<path d="M3.5 8.625C4.4375 8.625 5.23438 8.95312 5.89062 9.60938C6.54688 10.2656 6.875 11.0625 6.875 12C6.875 12.9375 6.54688 13.7344 5.89062 14.3906C5.23438 15.0469 4.4375 15.375 3.5 15.375C2.5625 15.375 1.76562 15.0469 1.10938 14.3906C0.453125 13.7344 0.125 12.9375 0.125 12C0.125 11.0625 0.453125 10.2656 1.10938 9.60938C1.76562 8.95312 2.5625 8.625 3.5 8.625ZM0.125 3.75C0.125 4.6875 0.453125 5.48438 1.10938 6.14062C1.76562 6.79688 2.5625 7.125 3.5 7.125C4.4375 7.125 5.23438 6.79688 5.89062 6.14062C6.54688 5.48438 6.875 4.6875 6.875 3.75C6.875 2.8125 6.54688 2.01562 5.89062 1.35938C5.23438 0.703125 4.4375 0.375 3.5 0.375C2.5625 0.375 1.76562 0.703125 1.10938 1.35938C0.453125 2.01562 0.125 2.8125 0.125 3.75ZM0.125 20.25C0.125 21.1875 0.453125 21.9844 1.10938 22.6406C1.76562 23.2969 2.5625 23.625 3.5 23.625C4.4375 23.625 5.23438 23.2969 5.89062 22.6406C6.54688 21.9844 6.875 21.1875 6.875 20.25C6.875 19.3125 6.54688 18.5156 5.89062 17.8594C5.23438 17.2031 4.4375 16.875 3.5 16.875C2.5625 16.875 1.76562 17.2031 1.10938 17.8594C0.453125 18.5156 0.125 19.3125 0.125 20.25Z" fill="#4B4B4B"/>
</svg>
