<svg width="24" height="22" viewBox="0 0 24 22" fill="none" xmlns="http://www.w3.org/2000/svg">
<path d="M6.98438 1.625V5.375C6.98438 5.6875 6.875 5.95312 6.65625 6.17188C6.4375 6.39063 6.17188 6.5 5.85938 6.5H1.125C0.8125 6.5 0.546875 6.39063 0.328125 6.17188C0.109375 5.95312 0 5.6875 0 5.375V1.625C0 1.3125 0.109375 1.04688 0.328125 0.828125C0.546875 0.609375 0.8125 0.5 1.125 0.5H5.85938C6.17188 0.5 6.4375 0.609375 6.65625 0.828125C6.875 1.04688 6.98438 1.3125 6.98438 1.625ZM15.5156 12.875V9.125C15.5156 8.8125 15.4062 8.54688 15.1875 8.32812C14.9688 8.10938 14.7031 8 14.3906 8H9.60938C9.29688 8 9.03125 8.10938 8.8125 8.32812C8.59375 8.54688 8.48438 8.8125 8.48438 9.125V12.875C8.48438 13.1875 8.59375 13.4531 8.8125 13.6719C9.03125 13.8906 9.29688 14 9.60938 14H14.3906C14.7031 14 14.9688 13.8906 15.1875 13.6719C15.4062 13.4531 15.5156 13.1875 15.5156 12.875ZM17.0156 1.625V5.375C17.0156 5.6875 17.125 5.95312 17.3438 6.17188C17.5625 6.39063 17.8281 6.5 18.1406 6.5H22.875C23.1875 6.5 23.4531 6.39063 23.6719 6.17188C23.8906 5.95312 24 5.6875 24 5.375V1.625C24 1.3125 23.8906 1.04688 23.6719 0.828125C23.4531 0.609375 23.1875 0.5 22.875 0.5H18.1406C17.8281 0.5 17.5625 0.609375 17.3438 0.828125C17.125 1.04688 17.0156 1.3125 17.0156 1.625ZM15.5156 5.375V1.625C15.5156 1.3125 15.4062 1.04688 15.1875 0.828125C14.9688 0.609375 14.7031 0.5 14.3906 0.5H9.60938C9.29688 0.5 9.03125 0.609375 8.8125 0.828125C8.59375 1.04688 8.48438 1.3125 8.48438 1.625V5.375C8.48438 5.6875 8.59375 5.95312 8.8125 6.17188C9.03125 6.39063 9.29688 6.5 9.60938 6.5H14.3906C14.7031 6.5 14.9688 6.39063 15.1875 6.17188C15.4062 5.95312 15.5156 5.6875 15.5156 5.375ZM5.85938 8H1.125C0.8125 8 0.546875 8.10938 0.328125 8.32812C0.109375 8.54688 0 8.8125 0 9.125V12.875C0 13.1875 0.109375 13.4531 0.328125 13.6719C0.546875 13.8906 0.8125 14 1.125 14H5.85938C6.17188 14 6.4375 13.8906 6.65625 13.6719C6.875 13.4531 6.98438 13.1875 6.98438 12.875V9.125C6.98438 8.8125 6.875 8.54688 6.65625 8.32812C6.4375 8.10938 6.17188 8 5.85938 8ZM0 16.625V20.375C0 20.6875 0.109375 20.9531 0.328125 21.1719C0.546875 21.3906 0.8125 21.5 1.125 21.5H5.85938C6.17188 21.5 6.4375 21.3906 6.65625 21.1719C6.875 20.9531 6.98438 20.6875 6.98438 20.375V16.625C6.98438 16.3125 6.875 16.0469 6.65625 15.8281C6.4375 15.6094 6.17188 15.5 5.85938 15.5H1.125C0.8125 15.5 0.546875 15.6094 0.328125 15.8281C0.109375 16.0469 0 16.3125 0 16.625ZM18.1406 14H22.875C23.1875 14 23.4531 13.8906 23.6719 13.6719C23.8906 13.4531 24 13.1875 24 12.875V9.125C24 8.8125 23.8906 8.54688 23.6719 8.32812C23.4531 8.10938 23.1875 8 22.875 8H18.1406C17.8281 8 17.5625 8.10938 17.3438 8.32812C17.125 8.54688 17.0156 8.8125 17.0156 9.125V12.875C17.0156 13.1875 17.125 13.4531 17.3438 13.6719C17.5625 13.8906 17.8281 14 18.1406 14ZM18.1406 21.5H22.875C23.1875 21.5 23.4531 21.3906 23.6719 21.1719C23.8906 20.9531 24 20.6875 24 20.375V16.625C24 16.3125 23.8906 16.0469 23.6719 15.8281C23.4531 15.6094 23.1875 15.5 22.875 15.5H18.1406C17.8281 15.5 17.5625 15.6094 17.3438 15.8281C17.125 16.0469 17.0156 16.3125 17.0156 16.625V20.375C17.0156 20.6875 17.125 20.9531 17.3438 21.1719C17.5625 21.3906 17.8281 21.5 18.1406 21.5ZM8.48438 16.625V20.375C8.48438 20.6875 8.59375 20.9531 8.8125 21.1719C9.03125 21.3906 9.29688 21.5 9.60938 21.5H14.3906C14.7031 21.5 14.9688 21.3906 15.1875 21.1719C15.4062 20.9531 15.5156 20.6875 15.5156 20.375V16.625C15.5156 16.3125 15.4062 16.0469 15.1875 15.8281C14.9688 15.6094 14.7031 15.5 14.3906 15.5H9.60938C9.29688 15.5 9.03125 15.6094 8.8125 15.8281C8.59375 16.0469 8.48438 16.3125 8.48438 16.625Z" fill="#4B4B4B"/>
</svg>
