<svg width="24" height="20" viewBox="0 0 24 20" fill="none" xmlns="http://www.w3.org/2000/svg">
<path d="M6 3.4375V1.5625C6 1.34375 6.0625 1.17188 6.1875 1.04688C6.34375 0.890625 6.53125 0.8125 6.75 0.8125H23.25C23.4688 0.8125 23.6406 0.890625 23.7656 1.04688C23.9219 1.17188 24 1.34375 24 1.5625V3.4375C24 3.65625 23.9219 3.84375 23.7656 4C23.6406 4.125 23.4688 4.1875 23.25 4.1875H6.75C6.53125 4.1875 6.34375 4.125 6.1875 4C6.0625 3.84375 6 3.65625 6 3.4375ZM6.75 11.6875H23.25C23.4688 11.6875 23.6406 11.625 23.7656 11.5C23.9219 11.3438 24 11.1562 24 10.9375V9.0625C24 8.84375 23.9219 8.67188 23.7656 8.54688C23.6406 8.39062 23.4688 8.3125 23.25 8.3125H6.75C6.53125 8.3125 6.34375 8.39062 6.1875 8.54688C6.0625 8.67188 6 8.84375 6 9.0625V10.9375C6 11.1562 6.0625 11.3438 6.1875 11.5C6.34375 11.625 6.53125 11.6875 6.75 11.6875ZM6.75 19.1875H23.25C23.4688 19.1875 23.6406 19.125 23.7656 19C23.9219 18.8438 24 18.6562 24 18.4375V16.5625C24 16.3438 23.9219 16.1719 23.7656 16.0469C23.6406 15.8906 23.4688 15.8125 23.25 15.8125H6.75C6.53125 15.8125 6.34375 15.8906 6.1875 16.0469C6.0625 16.1719 6 16.3438 6 16.5625V18.4375C6 18.6562 6.0625 18.8438 6.1875 19C6.34375 19.125 6.53125 19.1875 6.75 19.1875ZM0.75 4.75H3.75C3.96875 4.75 4.14062 4.6875 4.26562 4.5625C4.42188 4.40625 4.5 4.21875 4.5 4V1C4.5 0.78125 4.42188 0.609375 4.26562 0.484375C4.14062 0.328125 3.96875 0.25 3.75 0.25H0.75C0.53125 0.25 0.34375 0.328125 0.1875 0.484375C0.0625 0.609375 0 0.78125 0 1V4C0 4.21875 0.0625 4.40625 0.1875 4.5625C0.34375 4.6875 0.53125 4.75 0.75 4.75ZM0.75 12.25H3.75C3.96875 12.25 4.14062 12.1875 4.26562 12.0625C4.42188 11.9062 4.5 11.7188 4.5 11.5V8.5C4.5 8.28125 4.42188 8.10938 4.26562 7.98438C4.14062 7.82812 3.96875 7.75 3.75 7.75H0.75C0.53125 7.75 0.34375 7.82812 0.1875 7.98438C0.0625 8.10938 0 8.28125 0 8.5V11.5C0 11.7188 0.0625 11.9062 0.1875 12.0625C0.34375 12.1875 0.53125 12.25 0.75 12.25ZM0.75 19.75H3.75C3.96875 19.75 4.14062 19.6719 4.26562 19.5156C4.42188 19.3906 4.5 19.2188 4.5 19V16C4.5 15.7812 4.42188 15.6094 4.26562 15.4844C4.14062 15.3281 3.96875 15.25 3.75 15.25H0.75C0.53125 15.25 0.34375 15.3281 0.1875 15.4844C0.0625 15.6094 0 15.7812 0 16V19C0 19.2188 0.0625 19.3906 0.1875 19.5156C0.34375 19.6719 0.53125 19.75 0.75 19.75Z" fill="#4B4B4B"/>
</svg>
