<svg width="143" height="26" viewBox="0 0 143 26" fill="none" xmlns="http://www.w3.org/2000/svg">
<path d="M12.1406 1.84375L9.09375 8.03125L2.25 9.01562C1.84375 9.07812 1.51562 9.26562 1.26562 9.57812C1.04688 9.89062 0.9375 10.2344 0.9375 10.6094C0.96875 10.9844 1.125 11.3125 1.40625 11.5938L6.375 16.4219L5.20312 23.2656C5.14062 23.6406 5.20312 23.9844 5.39062 24.2969C5.60938 24.6406 5.90625 24.8594 6.28125 24.9531C6.65625 25.0469 7.01562 25 7.35938 24.8125L13.5 21.625L19.6406 24.8125C19.9844 25 20.3438 25.0469 20.7188 24.9531C21.0938 24.8594 21.375 24.6406 21.5625 24.2969C21.7812 23.9844 21.8594 23.6406 21.7969 23.2656L20.625 16.4219L25.5938 11.5938C25.875 11.3125 26.0156 10.9844 26.0156 10.6094C26.0469 10.2344 25.9375 9.89062 25.6875 9.57812C25.4688 9.26562 25.1562 9.07812 24.75 9.01562L17.9062 8.03125L14.8594 1.84375C14.6719 1.46875 14.3906 1.21875 14.0156 1.09375C13.6719 0.96875 13.3125 0.96875 12.9375 1.09375C12.5938 1.21875 12.3281 1.46875 12.1406 1.84375ZM41.5406 1.84375L38.4937 8.03125L31.65 9.01562C31.2437 9.07812 30.9156 9.26562 30.6656 9.57812C30.4469 9.89062 30.3375 10.2344 30.3375 10.6094C30.3687 10.9844 30.525 11.3125 30.8062 11.5938L35.775 16.4219L34.6031 23.2656C34.5406 23.6406 34.6031 23.9844 34.7906 24.2969C35.0094 24.6406 35.3062 24.8594 35.6812 24.9531C36.0562 25.0469 36.4156 25 36.7594 24.8125L42.9 21.625L49.0406 24.8125C49.3844 25 49.7437 25.0469 50.1187 24.9531C50.4937 24.8594 50.775 24.6406 50.9625 24.2969C51.1812 23.9844 51.2594 23.6406 51.1969 23.2656L50.025 16.4219L54.9937 11.5938C55.275 11.3125 55.4156 10.9844 55.4156 10.6094C55.4469 10.2344 55.3375 9.89062 55.0875 9.57812C54.8687 9.26562 54.5562 9.07812 54.15 9.01562L47.3062 8.03125L44.2594 1.84375C44.0719 1.46875 43.7906 1.21875 43.4156 1.09375C43.0719 0.96875 42.7125 0.96875 42.3375 1.09375C41.9937 1.21875 41.7281 1.46875 41.5406 1.84375ZM70.9406 1.84375L67.8937 8.03125L61.05 9.01562C60.6437 9.07812 60.3156 9.26562 60.0656 9.57812C59.8469 9.89062 59.7375 10.2344 59.7375 10.6094C59.7687 10.9844 59.925 11.3125 60.2062 11.5938L65.175 16.4219L64.0031 23.2656C63.9406 23.6406 64.0031 23.9844 64.1906 24.2969C64.4094 24.6406 64.7062 24.8594 65.0812 24.9531C65.4562 25.0469 65.8156 25 66.1594 24.8125L72.3 21.625L78.4406 24.8125C78.7844 25 79.1437 25.0469 79.5187 24.9531C79.8937 24.8594 80.175 24.6406 80.3625 24.2969C80.5812 23.9844 80.6594 23.6406 80.5969 23.2656L79.425 16.4219L84.3937 11.5938C84.675 11.3125 84.8156 10.9844 84.8156 10.6094C84.8469 10.2344 84.7375 9.89062 84.4875 9.57812C84.2687 9.26562 83.9562 9.07812 83.55 9.01562L76.7062 8.03125L73.6594 1.84375C73.4719 1.46875 73.1906 1.21875 72.8156 1.09375C72.4719 0.96875 72.1125 0.96875 71.7375 1.09375C71.3937 1.21875 71.1281 1.46875 70.9406 1.84375ZM100.341 1.84375L97.2937 8.03125L90.45 9.01562C90.0437 9.07812 89.7156 9.26562 89.4656 9.57812C89.2469 9.89062 89.1375 10.2344 89.1375 10.6094C89.1687 10.9844 89.325 11.3125 89.6062 11.5938L94.575 16.4219L93.4031 23.2656C93.3406 23.6406 93.4031 23.9844 93.5906 24.2969C93.8094 24.6406 94.1062 24.8594 94.4812 24.9531C94.8562 25.0469 95.2156 25 95.5594 24.8125L101.7 21.625L107.841 24.8125C108.184 25 108.544 25.0469 108.919 24.9531C109.294 24.8594 109.575 24.6406 109.762 24.2969C109.981 23.9844 110.059 23.6406 109.997 23.2656L108.825 16.4219L113.794 11.5938C114.075 11.3125 114.216 10.9844 114.216 10.6094C114.247 10.2344 114.137 9.89062 113.887 9.57812C113.669 9.26562 113.356 9.07812 112.95 9.01562L106.106 8.03125L103.059 1.84375C102.872 1.46875 102.591 1.21875 102.216 1.09375C101.872 0.96875 101.512 0.96875 101.137 1.09375C100.794 1.21875 100.528 1.46875 100.341 1.84375ZM141.459 9.0625L134.569 8.03125L131.522 1.84375C131.366 1.5625 131.162 1.35938 130.912 1.23438C130.694 1.07813 130.444 1 130.162 1C129.881 1 129.616 1.07813 129.366 1.23438C129.147 1.35938 128.959 1.5625 128.803 1.84375L125.756 8.03125L118.866 9.01562C118.491 9.07812 118.178 9.26562 117.928 9.57812C117.709 9.89062 117.6 10.2344 117.6 10.6094C117.6 10.9844 117.756 11.3125 118.069 11.5938L123.037 16.4219L121.866 23.2656C121.772 23.7344 121.881 24.1406 122.194 24.4844C122.506 24.8281 122.881 25 123.319 25C123.569 25 123.803 24.9375 124.022 24.8125L130.162 21.625L136.303 24.8125C136.522 24.9375 136.756 25 137.006 25C137.444 25 137.819 24.8281 138.131 24.4844C138.444 24.1406 138.553 23.7344 138.459 23.2656L137.287 16.4219L142.256 11.5938C142.569 11.3125 142.725 10.9844 142.725 10.6094C142.725 10.2344 142.6 9.89062 142.35 9.57812C142.131 9.26562 141.834 9.09375 141.459 9.0625ZM135.741 14.8281L134.897 15.625L135.975 22.1406L130.162 19.0469V4.1875L133.069 10.0938L139.584 11.0312L135.741 14.8281Z" fill="#FFBF1A"/>
</svg>
