<svg width="16" height="19" viewBox="0 0 16 19" fill="none" xmlns="http://www.w3.org/2000/svg">
<path d="M8 9.25C8.82031 9.25 9.57031 9.05078 10.25 8.65234C10.9531 8.25391 11.5039 7.71484 11.9023 7.03516C12.3008 6.33203 12.5 5.57031 12.5 4.75C12.5 3.92969 12.3008 3.17969 11.9023 2.5C11.5039 1.79688 10.9531 1.24609 10.25 0.847656C9.57031 0.449219 8.82031 0.25 8 0.25C7.17969 0.25 6.41797 0.449219 5.71484 0.847656C5.03516 1.24609 4.49609 1.79688 4.09766 2.5C3.69922 3.17969 3.5 3.92969 3.5 4.75C3.5 5.57031 3.69922 6.33203 4.09766 7.03516C4.49609 7.71484 5.03516 8.25391 5.71484 8.65234C6.41797 9.05078 7.17969 9.25 8 9.25ZM11.1641 10.375H10.5664C9.74609 10.75 8.89062 10.9375 8 10.9375C7.10938 10.9375 6.25391 10.75 5.43359 10.375H4.83594C3.99219 10.375 3.20703 10.5859 2.48047 11.0078C1.75391 11.4297 1.17969 12.0039 0.757812 12.7305C0.335938 13.457 0.125 14.2422 0.125 15.0859V16.5625C0.125 17.0312 0.289063 17.4297 0.617188 17.7578C0.945312 18.0859 1.34375 18.25 1.8125 18.25H14.1875C14.6562 18.25 15.0547 18.0859 15.3828 17.7578C15.7109 17.4297 15.875 17.0312 15.875 16.5625V15.0859C15.875 14.2422 15.6641 13.457 15.2422 12.7305C14.8203 12.0039 14.2461 11.4297 13.5195 11.0078C12.793 10.5859 12.0078 10.375 11.1641 10.375Z" fill="black"/>
</svg>
