<svg width="194" height="33" viewBox="0 0 194 33" fill="none" xmlns="http://www.w3.org/2000/svg">
<path d="M33.0469 14.8125L32.8359 13.8281C32.6953 14.25 32.4141 14.9531 32.4844 14.8828C32.4844 14.8828 31.5703 17.3438 31.3594 17.9766H33.6797C33.5391 17.4141 33.0469 14.8125 33.0469 14.8125ZM40.5 4.125C40.5 2.29688 38.9531 0.75 37.125 0.75H3.375C1.47656 0.75 0 2.29688 0 4.125V28.875C0 30.7734 1.47656 32.25 3.375 32.25H37.125C38.9531 32.25 40.5 30.7734 40.5 28.875V4.125ZM10.6875 21.8438H7.73438L5.20312 12.3516C4.28906 11.7891 3.30469 11.4375 2.25 11.1562V10.875H6.82031C7.45312 10.9453 7.94531 11.1562 8.08594 11.8594L9.07031 16.8516L9.35156 18.3281L12.1641 10.875H15.1172L10.6875 21.8438ZM17.2969 21.8438H14.4844L16.2422 10.875H19.125L17.2969 21.8438ZM27.1406 18.2578C27.1406 20.5078 25.2422 21.9844 22.2188 21.9844C20.9531 21.9844 19.7578 21.7031 19.125 21.4219L19.4766 18.9609L19.8281 19.1016C20.8125 19.5234 21.375 19.7344 22.5 19.7344C23.3438 19.7344 24.1875 19.3828 24.1875 18.6094C24.1875 18.1875 23.8359 17.8359 22.7109 17.2734C21.6562 16.7812 20.25 15.8672 20.25 14.3203C20.25 12.2109 22.2188 10.7344 25.0312 10.7344C26.1562 10.7344 27 10.9453 27.5625 11.1562L27.2109 13.5469L26.9297 13.4062C26.4375 13.1953 25.7344 12.9844 24.8203 12.9844C23.6953 12.9844 23.2031 13.4766 23.2031 13.9688C23.2031 14.4609 23.8359 14.8125 24.8203 15.3047C26.4375 16.0781 27.2109 16.9922 27.1406 18.2578ZM37.125 21.8438H34.4531C34.4531 21.8438 34.2422 20.5781 34.1719 20.2266H30.5156C30.375 20.5078 29.9531 21.8438 29.9531 21.8438H26.9297L31.1484 11.7891C31.4297 11.0859 31.9219 10.875 32.625 10.875H34.8047L37.125 21.8438ZM110.391 27.3984C110.391 26.9062 110.109 26.5547 109.617 26.5547C109.125 26.5547 108.844 26.9062 108.844 27.3984C108.844 27.8203 109.125 28.1719 109.617 28.1719C110.109 28.1719 110.391 27.8906 110.391 27.3984ZM88.5938 26.5547C88.1016 26.5547 87.75 26.9062 87.75 27.3984C87.75 27.8203 88.1016 28.1719 88.5938 28.1719C89.0156 28.1719 89.3672 27.8906 89.3672 27.3984C89.2969 26.9062 89.0156 26.5547 88.5938 26.5547ZM96.8203 26.5547C96.4688 26.5547 96.1875 26.7656 96.1875 27.1172H97.5234C97.4531 26.7656 97.1719 26.5547 96.8203 26.5547ZM104.414 26.5547C103.922 26.5547 103.641 26.9062 103.641 27.3984C103.641 27.8203 103.922 28.1719 104.414 28.1719C104.906 28.1719 105.188 27.8906 105.188 27.3984C105.188 26.9062 104.906 26.5547 104.414 26.5547ZM111.867 28.3828C111.867 28.3828 111.867 28.3125 111.797 28.3125C111.797 28.3125 111.797 28.3125 111.727 28.3125C111.727 28.2422 111.727 28.2422 111.656 28.2422C111.656 28.2422 111.656 28.2422 111.586 28.3125C111.586 28.3125 111.586 28.3125 111.516 28.3125V28.3828C111.445 28.3828 111.445 28.4531 111.445 28.4531C111.445 28.5234 111.445 28.5234 111.516 28.5234C111.516 28.5938 111.516 28.5938 111.516 28.5938C111.586 28.5938 111.586 28.6641 111.586 28.6641C111.656 28.6641 111.656 28.6641 111.656 28.6641C111.727 28.6641 111.727 28.6641 111.727 28.6641C111.797 28.6641 111.797 28.5938 111.797 28.5938C111.867 28.5938 111.867 28.5938 111.867 28.5234C111.867 28.5234 111.867 28.5234 111.867 28.4531V28.3828ZM111.727 28.5234L111.797 28.5938H111.727L111.656 28.4531V28.5938H111.586V28.3125H111.656C111.727 28.3125 111.727 28.3828 111.727 28.3828C111.797 28.3828 111.797 28.3828 111.797 28.3828C111.797 28.4531 111.797 28.4531 111.727 28.4531V28.5234ZM117 4.19531C117 2.36719 115.453 0.820312 113.625 0.820312H79.875C77.9766 0.820312 76.5 2.36719 76.5 4.19531V28.9453C76.5 30.8438 77.9766 32.3203 79.875 32.3203H113.625C115.453 32.3203 117 30.8438 117 28.9453V4.19531ZM81 14.0391C81 8.69531 85.3594 4.33594 90.7031 4.33594C92.6016 4.33594 94.5 4.89844 96.1172 5.95312C90.9844 10.1016 90.9844 17.9766 96.1172 22.125C94.5 23.1797 92.6016 23.8125 90.7031 23.8125C85.3594 23.8125 81 19.4531 81 14.0391ZM96.75 21.7031C91.7578 17.8359 91.7578 10.3125 96.75 6.375C101.672 10.3125 101.672 17.8359 96.75 21.7031ZM86.6953 27.0469V28.6641H86.1328C86.1328 27.2578 86.2734 26.5547 85.5703 26.5547C84.7969 26.5547 84.9375 27.3984 84.9375 28.6641H84.375C84.375 27.2578 84.5156 26.5547 83.8125 26.5547C82.9688 26.5547 83.1797 27.3281 83.1797 28.6641H82.6172V26.0625H83.1797V26.4141C83.3906 26.1328 83.6719 25.9922 83.9531 25.9922C84.3047 25.9922 84.5859 26.2031 84.7969 26.4844C85.0078 26.1328 85.3594 25.9922 85.7109 25.9922C86.3438 26.0625 86.6953 26.4141 86.6953 27.0469ZM89.8594 26.0625V28.6641H89.2969V28.3828C89.1562 28.5938 88.875 28.7344 88.5234 28.7344C87.75 28.7344 87.1875 28.1719 87.1875 27.3984C87.1875 26.625 87.75 25.9922 88.5234 25.9922C88.875 25.9922 89.1562 26.2031 89.2969 26.4141V26.0625H89.8594ZM92.7422 27.8906C92.7422 28.875 91.1953 28.9453 90.4219 28.4531L90.7031 27.9609C91.1953 28.3125 92.1094 28.3828 92.1094 27.8906C92.1094 27.4688 90.4922 27.8906 90.4922 26.8359C90.4922 25.8516 91.9688 25.8516 92.6719 26.2734L92.3906 26.7656C91.9688 26.4844 91.125 26.4141 91.125 26.8359C91.125 27.3281 92.7422 26.8359 92.7422 27.8906ZM95.2031 28.5234C94.8516 28.8047 93.5859 29.0156 93.5859 27.75V26.625H93.0938V26.0625H93.5859V25.2891H94.2188V26.0625H95.1328V26.625H94.2188V27.75C94.2188 28.3828 94.7812 28.2422 95.0625 28.1016L95.2031 28.5234ZM96.1172 27.6094C96.3281 28.3828 97.1016 28.3828 97.6641 27.9609L97.9453 28.3828C97.1719 29.0859 95.5547 28.8047 95.5547 27.3984C95.5547 26.5547 96.1172 25.9922 96.8203 25.9922C97.5234 25.9922 98.0859 26.4844 98.0859 27.6094H96.1172ZM100.266 26.0625L100.125 26.625C99.9141 26.4844 99.2109 26.4141 99.2109 27.1875V28.6641H98.6484V26.0625H99.2109V26.4141C99.4922 25.9922 99.9844 25.9219 100.266 26.0625ZM101.039 27.3984C101.039 28.1719 101.883 28.4531 102.516 27.9609L102.797 28.4531C102.023 29.0859 100.477 28.8047 100.477 27.3984C100.477 26.0625 101.953 25.7109 102.797 26.3438L102.516 26.7656C101.883 26.3438 101.039 26.5547 101.039 27.3984ZM105.75 26.0625V28.6641H105.188V28.3828C104.625 29.0859 103.078 28.7344 103.078 27.3984C103.078 26.0625 104.555 25.6406 105.188 26.4141V26.0625H105.75ZM108.07 26.0625L107.93 26.625C107.648 26.4844 107.016 26.4141 107.016 27.1875V28.6641H106.453V26.0625H107.016V26.4141C107.297 25.9219 107.93 25.9922 108.07 26.0625ZM110.953 25.0781V28.6641H110.391V28.3828C109.828 29.0859 108.281 28.7344 108.281 27.3984C108.281 26.0625 109.828 25.6406 110.391 26.4141V25.0781H110.953ZM111.445 19.7344H111.305H111.656H111.516V20.0859H111.445V19.7344ZM111.938 28.4531C111.938 28.5234 111.938 28.5234 111.938 28.5938C111.867 28.5938 111.867 28.5938 111.867 28.6641C111.867 28.6641 111.797 28.6641 111.797 28.7344C111.727 28.7344 111.727 28.7344 111.656 28.7344H111.586C111.516 28.6641 111.516 28.6641 111.516 28.6641C111.445 28.5938 111.445 28.5938 111.445 28.5938C111.445 28.5234 111.445 28.5234 111.445 28.4531V28.3828C111.445 28.3125 111.445 28.3125 111.516 28.3125C111.516 28.2422 111.516 28.2422 111.586 28.2422L111.656 28.1719C111.727 28.1719 111.727 28.2422 111.797 28.2422C111.797 28.2422 111.867 28.2422 111.867 28.3125C111.867 28.3125 111.867 28.3125 111.938 28.3828V28.4531ZM112.148 19.7344V20.0859H112.078V19.8047L112.008 20.0156H111.938L111.797 19.8047V20.0859H111.727V19.7344H111.867L111.938 19.9453L112.078 19.7344H112.148ZM112.5 14.0391C112.5 19.4531 108.07 23.8125 102.727 23.7422C100.828 23.7422 98.9297 23.1797 97.3828 22.125C102.516 17.9766 102.445 10.1016 97.3828 5.95312C98.9297 4.89844 100.828 4.33594 102.727 4.33594C108.07 4.33594 112.5 8.69531 112.5 14.0391ZM175.852 10.3125C175.852 9.1875 174.867 9.04688 173.883 9.04688H171.141V13.8984H172.336V12.1406H173.602C174.867 12.1406 174.586 12.8438 174.586 13.8984H175.781V12.9141C175.781 12.2812 175.641 11.8594 175.008 11.6484C175.5 11.4375 175.852 10.875 175.852 10.3125ZM173.742 11.1562H172.336V10.0312H173.812C174.164 10.0312 174.516 10.1016 174.516 10.5938C174.516 11.0156 174.164 11.1562 173.742 11.1562ZM172.617 17.4141H168.891L167.414 19.0312L165.938 17.4141H161.297V22.2656H165.867L167.344 20.6484L168.82 22.2656H171.07V20.6484C172.406 20.6484 174.516 21 174.516 19.0312C174.516 17.7656 173.672 17.4141 172.617 17.4141ZM165.305 21.2812H162.422V20.2969H164.953V19.3125H162.422V18.3984H165.375L166.641 19.875L165.305 21.2812ZM169.945 21.8438L168.117 19.875L169.945 17.9062V21.8438ZM172.547 19.6641H171.07V18.3984H172.617C172.969 18.3984 173.32 18.6094 173.32 19.0312C173.32 19.4531 172.969 19.6641 172.547 19.6641ZM170.367 10.0312V9.04688H166.43V13.8984H170.367V12.9141H167.625V11.9297H170.297V10.9453H167.625V10.0312H170.367ZM193.5 16.5H193.43H193.5ZM179.789 18.75C179.789 17.5547 178.805 17.4141 177.891 17.4141H175.078V22.2656H176.273V20.5078H177.539C178.312 20.5078 178.523 20.6484 178.523 21.4922V22.2656H179.719V21.3516C179.719 20.7188 179.578 20.2266 178.945 20.0156C179.508 19.8047 179.789 19.2422 179.789 18.75ZM177.75 19.5234H176.273V18.3984H177.75C178.102 18.3984 178.523 18.4688 178.523 18.9609C178.523 19.4531 178.102 19.5234 177.75 19.5234ZM165.586 13.8984V9.04688H163.617L162.281 12.3516L160.734 9.04688H158.836V13.6172L156.867 9.04688H155.109L153.07 13.8984H154.266L154.758 12.8438H157.148L157.641 13.8984H160.031V10.1016L161.719 13.8984H162.703L164.391 10.1016V13.8984H165.586ZM155.18 11.7891L155.953 9.89062L156.727 11.7891H155.18ZM188.719 22.9688V22.6875C187.945 23.0391 188.438 22.9688 177.68 22.9688C177.68 21.2109 177.75 21.2812 177.68 21.2109C177.609 21.2109 177.469 21.2109 177.047 21.2109C177.047 22.4766 177.047 21.7031 177.047 22.9688H174.234C174.234 22.125 174.234 21.9141 174.234 20.9297C173.531 21.3516 172.688 21.3516 171.844 21.3516C171.844 22.4062 171.844 21.9141 171.844 22.9688H168.398C168.047 22.5469 168.188 22.7578 167.344 21.7734C167.133 21.9844 166.43 22.7578 166.219 22.9688H160.453V16.5H166.289C166.641 16.8516 166.5 16.7109 167.344 17.6953C167.555 17.4844 168.188 16.7812 168.469 16.5H172.547C173.25 16.5 173.812 16.6406 174.234 16.8516V16.5C178.102 16.5 178.805 16.3594 179.578 16.8516V16.5H185.062V16.8516C185.906 16.3594 186.469 16.5 189.633 16.5V16.8516C190.336 16.4297 190.828 16.5 193.43 16.5V4.125C193.43 2.29688 191.953 0.75 190.055 0.75H156.305C154.477 0.75 152.93 2.29688 152.93 4.125V11.8594C153.633 10.3125 154.336 8.625 154.547 8.0625H157.359C157.641 8.76562 157.5 8.34375 157.992 9.53906V8.0625H161.227C161.438 8.55469 162 9.75 162.211 10.1719C162.633 9.25781 162.914 8.48438 163.125 8.0625H170.367H171.141C174.234 8.13281 174.938 8.0625 175.711 8.48438V8.0625H178.523V8.76562C179.016 8.34375 179.719 8.0625 180.633 8.0625H182.602C182.602 8.13281 182.742 8.13281 182.742 8.13281H185.062C185.344 8.76562 185.203 8.55469 185.625 9.53906V8.13281H188.719C189.07 8.69531 188.648 7.99219 189.492 9.39844V8.13281H192.305V14.6016H189.352C189 13.9688 189.281 14.3906 188.438 13.0547V14.6016H184.711C184.289 13.5469 184.711 14.5312 184.289 13.4766H182.953C182.602 14.1797 182.742 13.8984 182.461 14.6016H180.562C179.719 14.6016 179.016 14.3906 178.523 13.9688V14.6016H173.812C173.812 13.6172 173.812 12.8438 173.812 12.8438C173.672 12.8438 173.602 12.8438 173.109 12.8438V14.6016H163.617V13.7578C163.406 14.1797 163.406 14.1797 163.266 14.6016H161.156C160.875 13.9688 160.945 14.1094 160.805 13.7578V14.6016H157.078C156.797 13.8984 156.938 14.1797 156.656 13.4766H155.32C154.969 14.1797 155.109 13.8984 154.828 14.6016H153V28.875C153 30.7734 154.477 32.25 156.375 32.25H190.125C191.953 32.25 193.5 30.7734 193.5 28.875V22.5469C192.586 23.1094 191.18 22.9688 188.719 22.9688ZM191.25 18.4688H193.43V17.4141H191.109C190.195 17.4141 189.422 17.9062 189.422 18.8906C189.422 21.2109 192.445 19.8047 192.445 20.7891C192.445 21.1406 192.094 21.2812 191.812 21.2812H189.562V22.2656H191.812C192.375 22.2656 193.078 22.1953 193.43 21.6328V19.875C192.656 18.8906 190.617 19.7344 190.617 18.8906C190.617 18.4688 190.969 18.4688 191.25 18.4688ZM187.242 21.2109H184.992V22.2656H187.242C188.297 22.2656 189.141 21.9141 189.141 20.7188C189.141 18.3984 186.117 19.9453 186.117 18.8906C186.117 18.4688 186.469 18.4688 186.75 18.4688H188.859V17.4141H186.539C185.625 17.4141 184.922 17.9062 184.922 18.8906C184.922 21.2109 187.875 19.7344 187.875 20.7891C187.875 21.1406 187.594 21.2109 187.242 21.2109ZM184.289 18.3984V17.4141H180.422V22.2656H184.289V21.2812H181.617V20.2969H184.289V19.3125H181.617V18.3984H184.289ZM180.352 10.8047C180.352 10.8047 180.281 10.9453 180.281 11.3672C180.281 11.7891 180.281 11.9297 180.352 11.9297C180.352 11.9297 180.422 11.9297 180.562 11.9297L181.055 10.7344C180.984 10.7344 180.914 10.7344 180.844 10.7344C180.492 10.7344 180.352 10.8047 180.352 10.8047ZM180.633 9.04688C179.016 9.04688 178.242 9.89062 178.242 11.5078C178.242 13.0547 178.945 13.8984 180.562 13.8984H181.898L182.391 12.8438H184.781L185.273 13.8984H187.594V10.2422L189.844 13.8984H191.461V9.04688H190.266V12.4219L188.227 9.04688H186.469V13.6172L184.5 9.04688H182.742L181.125 12.8438H180.562C179.648 12.8438 179.438 12.2812 179.438 11.4375C179.438 9.82031 180.562 10.0312 181.758 10.1016V9.04688H180.633ZM183.586 9.89062L184.359 11.7891H182.812L183.586 9.89062ZM176.484 9.04688V13.8984H177.68V9.04688H176.484Z" fill="#4B4B4B"/>
</svg>
